<svg version="1.1" id="Layer_1" xmlns="http://www.w3.org/2000/svg" x="0px" y="0px" class="d-block mx-auto" viewBox="0 0 500 500" enable-background="new 0 0 500 500" xml:space="preserve">
                                            <g>
                                                <path class="must-read__img-hover-element--first" clip-rule="evenodd" d="M129.587,174.119c-7.979-15.071-14.293-27.006-21.674-40.949
                                                    c-8.058,14.147-15.133,26.577-23.858,41.892c0-31.545,0-59.7,0-88.617c15.099,0,29.946,0,45.532,0
                                                    C129.587,114.764,129.587,142.565,129.587,174.119z"></path>
                                                <path class="must-read__img-hover-element--second" clip-rule="evenodd" d="M238.846,377.584c0-77.772,62.73-140.863,140.345-141.506
                                                    c0-49.534,0-99.225,0-149.513c-79.381,0-158.314,0-238.795,0c0,43.305,0,85.747,0,128.185c-0.74,0.105-1.48,0.205-2.224,0.306
                                                    c-9.978-19.333-19.955-38.666-30.635-59.359c-11.313,20.167-21.831,38.91-32.348,57.657c-0.865-0.252-1.734-0.502-2.599-0.75
                                                    c0-41.856,0-83.712,0-126.985c-7.046,0-12.845,0.341-18.591-0.064c-16.018-1.132-28.624-13.116-29.504-27.672
                                                    c-0.969-16.086,9.323-28.56,26.418-31.413c5.356-0.891,10.898-0.923,16.356-0.927c99.073-0.052,198.143-0.028,297.211-0.068
                                                    c4.752,0,9.504-0.397,14.633-0.626c-5.373-15.954-14.805-22.604-30.826-22.612C253.01,2.187,157.735,2.191,62.457,2.195
                                                    c-40.895,0-62.389,21.343-62.409,62.26c-0.066,124.313-0.05,248.629-0.032,372.941c0.006,37.906,22.562,60.374,60.629,60.39
                                                    c81.686,0.036,163.375,0.017,245.06,0.021C265.574,472.822,238.846,428.334,238.846,377.584z"></path>
                                                <path class="must-read__img-hover-element--third" clip-rule="evenodd" d="M380.375,257.963c-66.057,0-119.611,53.556-119.611,119.621
                                                    c0,66.064,53.555,119.62,119.611,119.62c66.07,0,119.625-53.556,119.625-119.62C500,311.519,446.445,257.963,380.375,257.963z
                                                    M440.428,366.932L410.227,393.1l9.051,38.923c0.627,2.704-2.303,4.832-4.676,3.396l-34.219-20.634l-34.213,20.634
                                                    c-2.381,1.433-5.303-0.695-4.676-3.396l9.049-38.923l-30.209-26.172c-2.094-1.813-0.979-5.257,1.791-5.498l39.813-3.42
                                                    l15.557-36.803c1.076-2.561,4.699-2.561,5.779,0l15.553,36.808l39.813,3.423C441.4,361.675,442.523,365.118,440.428,366.932z"></path>
                                            </g>
                                        </svg>