<svg version="1.1" id="Layer_1" xmlns="http://www.w3.org/2000/svg" x="0px" y="0px" class="d-block mx-auto" viewBox="0 0 500 500" enable-background="new 0 0 500 500" xml:space="preserve">
                                            <g>
                                                <path class="must-read__img-hover-element--first" clip-rule="evenodd" d="M129.588,174.118c-7.978-15.071-14.294-27.005-21.675-40.95
                                                    c-8.056,14.147-15.133,26.576-23.856,41.894c0-31.546,0-59.7,0-88.62c15.096,0,29.945,0,45.531,0
                                                    C129.588,114.761,129.588,142.562,129.588,174.118z"></path>
                                                <path class="must-read__img-hover-element--second" clip-rule="evenodd" d="M238.846,377.582c0-77.77,62.73-140.864,140.347-141.506
                                                    c0-49.532,0-99.222,0-149.51c-79.381,0-158.316,0-238.796,0c0,43.304,0,85.744,0,128.184c-0.741,0.104-1.482,0.205-2.224,0.306
                                                    c-9.978-19.333-19.955-38.667-30.634-59.361c-11.314,20.167-21.833,38.912-32.351,57.657c-0.865-0.252-1.732-0.501-2.599-0.751
                                                    c0-41.854,0-83.708,0-126.983c-7.045,0-12.846,0.341-18.589-0.064c-16.02-1.131-28.623-13.118-29.502-27.675
                                                    c-0.974-16.084,9.323-28.559,26.417-31.41c5.356-0.894,10.899-0.926,16.356-0.929c99.071-0.052,198.139-0.03,297.213-0.067
                                                    c4.752-0.002,9.506-0.4,14.635-0.63c-5.377-15.953-14.809-22.601-30.83-22.608C253.01,2.185,157.734,2.19,62.457,2.195
                                                    c-40.894,0-62.39,21.343-62.41,62.259c-0.064,124.313-0.049,248.628-0.032,372.945c0.007,37.904,22.564,60.373,60.628,60.389
                                                    c81.688,0.037,163.375,0.014,245.062,0.02C265.574,472.824,238.846,428.334,238.846,377.582z"></path>
                                                <g class="must-read__img-hover-element--third">
                                                    <path fill-rule="evenodd" clip-rule="evenodd" d="M393.207,351.586l-17.949,13.111l-4.049-5.762
                                                        c-1.236-1.762-3.666-2.186-5.426-0.947c-1.762,1.234-2.186,3.662-0.947,5.424l6.326,9.012c0.602,0.855,1.521,1.434,2.553,1.604
                                                        c0.211,0.035,0.424,0.051,0.633,0.051c0.822,0,1.629-0.258,2.301-0.75l21.152-15.449c1.736-1.27,2.117-3.705,0.848-5.445
                                                        C397.379,350.697,394.943,350.32,393.207,351.586z"></path>
                                                    <path fill-rule="evenodd" clip-rule="evenodd" d="M380.383,319.395c-23.037,0-41.779,18.742-41.779,41.779
                                                        c0,23.039,18.742,41.781,41.779,41.781c23.039,0,41.781-18.742,41.781-41.781C422.164,338.137,403.422,319.395,380.383,319.395z
                                                        M380.383,395.166c-18.744,0-33.99-15.25-33.99-33.992s15.246-33.99,33.99-33.99c18.742,0,33.988,15.248,33.988,33.99
                                                        S399.125,395.166,380.383,395.166z"></path>
                                                    <path fill-rule="evenodd" clip-rule="evenodd" d="M380.383,257.963c-66.066,0-119.621,53.555-119.621,119.619
                                                        c0,66.066,53.555,119.621,119.621,119.621c66.061,0,119.617-53.555,119.617-119.621C500,311.518,446.443,257.963,380.383,257.963z
                                                        M359.412,457.648c-0.48,1.066-1.438,1.191-1.824,1.197c-0.4,0.01-1.352-0.098-1.861-1.15l-3.48-7.199
                                                        c-1.672-3.465-5.148-5.555-8.838-5.555c-0.877,0-1.764,0.119-2.641,0.363l-7.705,2.145c-1.127,0.314-1.838-0.34-2.09-0.635
                                                        c-0.256-0.297-0.791-1.1-0.313-2.164l10.586-23.408c1.855,2.238,4.227,4.105,7.037,5.459c7.771,3.742,16.535,2.432,22.871-3.424
                                                        c1.492-1.379,3.244-2.332,5.094-2.865L359.412,457.648z M429.791,446.814c-0.252,0.297-0.963,0.949-2.09,0.635l-7.705-2.145
                                                        c-0.879-0.244-1.764-0.363-2.641-0.363c-3.693,0-7.166,2.09-8.838,5.555l-3.48,7.199c-0.51,1.053-1.463,1.16-1.861,1.15
                                                        c-0.387-0.006-1.344-0.131-1.828-1.197l-16.832-37.236c1.85,0.533,3.602,1.486,5.092,2.865c6.338,5.855,15.102,7.166,22.873,3.424
                                                        c2.811-1.354,5.182-3.221,7.037-5.459L430.1,444.65C430.582,445.715,430.047,446.518,429.791,446.814z M443.65,375.654
                                                        c-0.938,4.096-4.189,8.814-10.521,9.781c-10.529,1.607-18.172,11.191-17.396,21.814c0.465,6.389-3.41,10.613-7.193,12.434
                                                        c-3.781,1.822-9.502,2.221-14.207-2.127c-3.912-3.615-8.93-5.422-13.949-5.422s-10.041,1.807-13.951,5.422
                                                        c-4.705,4.348-10.424,3.949-14.207,2.127c-3.783-1.82-7.658-6.045-7.193-12.434c0.773-10.623-6.867-20.207-17.396-21.814
                                                        c-6.332-0.967-9.588-5.686-10.521-9.781c-0.934-4.09-0.049-9.754,5.234-13.373c8.789-6.021,11.52-17.969,6.211-27.205
                                                        c-3.191-5.551-1.531-11.041,1.088-14.32c2.617-3.283,7.598-6.123,13.719-4.25c10.186,3.121,21.23-2.199,25.143-12.107
                                                        c2.352-5.955,7.676-8.078,11.875-8.078c4.197,0,9.523,2.123,11.875,8.078c3.91,9.908,14.955,15.229,25.141,12.107
                                                        c6.121-1.873,11.104,0.967,13.721,4.25c2.617,3.279,4.277,8.77,1.086,14.32c-5.307,9.236-2.578,21.184,6.211,27.205
                                                        C443.699,365.9,444.584,371.563,443.65,375.654z"></path>
                                                </g>
                                            </g>

                                        </svg>