<svg version="1.1" id="Layer_1" xmlns="http://www.w3.org/2000/svg" x="0px" y="0px" class="d-block mx-auto" viewBox="0 0 500 500" enable-background="new 0 0 500 500" xml:space="preserve">
                                            <g class="must-read__img-hover-element--second">
                                                <path d="M0,407.271c0,31.376,25.526,56.902,56.902,56.902h12.646h347.204h25.288h26.349v-25.288H442.04V375.66
                                                    h26.349v-11.066h12.643H500v-25.288h-18.969v-63.222H500v-25.292h-18.969h-1.579v-8.424v-12.646v-0.542l-31.224-58.481h32.803
                                                    V136.69L398.513,35.829H107.378l-75.08,118.3c-12.839,10.448-21.231,26.179-21.231,43.984c0,31.182,25.229,56.532,56.346,56.84
                                                    c-20.938,8.41-35.798,28.836-35.798,52.742c0,17.362,7.978,32.733,20.274,43.179C22.89,353.457,0,377.608,0,407.271z
                                                    M36.354,198.112c0-11.792,6.558-21.979,16.153-27.413h376.887v59.027H67.969C50.538,229.723,36.354,215.54,36.354,198.112z
                                                    M88.517,276.084h12.646H455.74v63.222H101.162H88.517c-17.431,0-31.614-14.177-31.614-31.611S71.085,276.084,88.517,276.084z
                                                    M56.902,375.66h12.646h347.204v63.222H69.548H56.902c-17.428,0-31.611-14.173-31.611-31.611
                                                    C25.292,389.833,39.475,375.66,56.902,375.66z"></path>
                                            </g>

                                        </svg>