<svg version="1.1" id="Layer_1" xmlns="http://www.w3.org/2000/svg" x="0px" y="0px" class="d-block mx-auto" viewBox="0 0 500 500" enable-background="new 0 0 500 500" xml:space="preserve">
                                            <g class="must-read__img-hover-element--second">
                                                <path d="M94.716,247.146c0-39.124,15.933-74.524,41.662-100.073v-40.222H36.072L0,177.065h60.184v204.278h76.194v-34.125
                                                    C110.649,321.67,94.716,286.27,94.716,247.146z"></path>
                                                <path d="M296.582,313.732c-17.762-16.65-28.863-40.321-28.863-66.587c0-50.398,40.856-91.254,91.254-91.254
                                                    c50.399,0,91.256,40.856,91.256,91.254c0,24.156-9.391,46.116-24.715,62.439c15.98,3.222,33.628,8.591,49.65,17.508
                                                    C490.827,304.372,500,276.83,500,247.146c0-77.887-63.141-141.026-141.027-141.026c-77.886,0-141.025,63.14-141.025,141.026
                                                    c0,31.479,10.314,60.547,27.746,84.013C258.945,324.43,275.612,318.361,296.582,313.732z"></path>
                                                <path d="M194.312,393.881c0,0-1.029-83.589,180.294-88.989c0,0,74.072-3.087,118.824,34.721c0,0-65.166-50.283-201.598-12.782
                                                    C291.832,326.83,222.865,345.572,194.312,393.881z"></path>
                                                <path d="M233.631,338.023c-46.526-4.175-82.994-43.264-82.994-90.878c0-50.398,40.856-91.254,91.254-91.254
                                                    c1.471,0,2.933,0.038,4.386,0.107c13.936-16.437,31.568-29.637,51.615-38.32c-17.167-7.436-36.102-11.559-56.001-11.559
                                                    c-77.887,0-141.026,63.14-141.026,141.026c0,62.171,40.23,114.944,96.078,133.71C200.793,369.634,210.28,352.936,233.631,338.023z"></path>

                                                <g class="must-read__img-hover-element--first">
                                                    <path d="M275.342,375.322l3.412-23.831h0.387l9.688,19.554l9.595-19.554h0.382l3.43,23.831h-2.336l-2.354-17.043l-8.426,17.043
                                                        h-0.608l-8.527-17.173l-2.34,17.173H275.342z"></path>
                                                    <path d="M306.997,351.491h2.381v14.387c0,1.707,0.032,2.77,0.097,3.191c0.119,0.939,0.395,1.725,0.826,2.356
                                                        c0.433,0.632,1.098,1.161,1.994,1.588s1.798,0.641,2.705,0.641c0.788,0,1.544-0.168,2.268-0.503
                                                        c0.724-0.334,1.328-0.799,1.814-1.394c0.486-0.594,0.843-1.312,1.069-2.154c0.162-0.604,0.243-1.847,0.243-3.726v-14.387h2.381
                                                        v14.387c0,2.127-0.207,3.848-0.623,5.159c-0.416,1.313-1.248,2.454-2.495,3.427c-1.247,0.972-2.757,1.458-4.528,1.458
                                                        c-1.922,0-3.569-0.459-4.94-1.378c-1.372-0.917-2.29-2.132-2.755-3.645c-0.291-0.929-0.437-2.603-0.437-5.021V351.491z"></path>
                                                    <path d="M326.178,370.884l2.025-1.215c1.426,2.624,3.072,3.937,4.941,3.937c0.799,0,1.549-0.187,2.252-0.56
                                                        c0.701-0.372,1.236-0.872,1.604-1.498c0.366-0.627,0.551-1.291,0.551-1.993c0-0.799-0.27-1.582-0.811-2.349
                                                        c-0.744-1.059-2.105-2.333-4.082-3.823c-1.987-1.501-3.225-2.587-3.711-3.257c-0.842-1.123-1.263-2.338-1.263-3.645
                                                        c0-1.037,0.249-1.981,0.745-2.835s1.196-1.525,2.098-2.018c0.902-0.491,1.883-0.737,2.94-0.737c1.124,0,2.174,0.278,3.151,0.835
                                                        c0.977,0.556,2.012,1.579,3.102,3.07l-1.943,1.474c-0.896-1.188-1.66-1.971-2.293-2.349c-0.631-0.378-1.32-0.567-2.064-0.567
                                                        c-0.962,0-1.748,0.292-2.357,0.875c-0.61,0.583-0.916,1.302-0.916,2.154c0,0.519,0.108,1.021,0.324,1.507
                                                        c0.217,0.486,0.61,1.016,1.184,1.588c0.313,0.302,1.338,1.097,3.078,2.381c2.063,1.523,3.477,2.879,4.244,4.066
                                                        c0.767,1.188,1.15,2.382,1.15,3.58c0,1.729-0.656,3.23-1.969,4.505c-1.313,1.273-2.908,1.911-4.787,1.911
                                                        c-1.447,0-2.76-0.387-3.938-1.158C328.257,373.991,327.172,372.698,326.178,370.884z"></path>
                                                    <path d="M342.799,353.824v-2.333h13.059v2.333h-5.314v21.498h-2.43v-21.498H342.799z"></path>
                                                    <path d="M368.606,351.491h4.747c2.646,0,4.439,0.108,5.379,0.325c1.414,0.324,2.564,1.019,3.45,2.084s1.328,2.376,1.328,3.934
                                                        c0,1.298-0.306,2.438-0.915,3.423c-0.61,0.983-1.482,1.727-2.616,2.23c-1.134,0.502-2.7,0.76-4.698,0.77l8.57,11.065h-2.947
                                                        l-8.57-11.065h-1.346v11.065h-2.382V351.491z M370.988,353.824v8.101l4.105,0.032c1.59,0,2.766-0.15,3.529-0.453
                                                        c0.762-0.303,1.357-0.786,1.784-1.45c0.428-0.664,0.642-1.406,0.642-2.228c0-0.8-0.217-1.525-0.649-2.18
                                                        c-0.433-0.652-1.001-1.12-1.704-1.4c-0.703-0.281-1.871-0.422-3.505-0.422H370.988z"></path>
                                                    <path d="M388.63,351.491h13.657v2.333h-11.275v7.469h11.178v2.333h-11.178v9.363h11.178v2.333h-13.56V351.491z"></path>
                                                    <path d="M416.139,351.491l11.113,23.831h-2.572l-3.748-7.841h-10.267l-3.713,7.841h-2.657l11.26-23.831H416.139z M415.838,356.555
                                                        l-4.084,8.626h8.147L415.838,356.555z"></path>
                                                    <path d="M430.945,375.322v-23.831h4.941c3.563,0,6.15,0.287,7.76,0.859c2.311,0.81,4.117,2.214,5.419,4.212
                                                        s1.952,4.379,1.952,7.144c0,2.388-0.516,4.488-1.547,6.303s-2.371,3.153-4.018,4.018c-1.647,0.864-3.956,1.296-6.926,1.296
                                                        H430.945z M433.229,373.07h2.754c3.294,0,5.579-0.205,6.853-0.615c1.793-0.583,3.203-1.632,4.229-3.147
                                                        c1.024-1.517,1.538-3.37,1.538-5.561c0-2.298-0.557-4.263-1.668-5.892c-1.113-1.63-2.662-2.746-4.65-3.352
                                                        c-1.49-0.452-3.947-0.68-7.371-0.68h-1.685V373.07z"></path>
                                                </g>

                                                <g>
                                                    <g class="must-read__img-hover-element--third">
                                                        <path d="M415.87,209.22v-7.745l-1.114-0.439c-0.39-0.153-9.498-3.685-21.637-3.685c-13.01,0-24.211,3.962-33.332,11.781
                                                            c-9.115-7.818-20.323-11.781-33.331-11.781c-12.146,0-21.249,3.532-21.63,3.685l-1.125,0.439v7.176
                                                            c-3.675,0.687-5.965,1.917-5.965,3.928c0,10.459,0,73.946,0,73.946h54.467c1.885,1.687,4.641,2.748,7.722,2.748
                                                            c3.082,0,5.835-1.062,7.717-2.748h53.092c0,0,0-70.277,0-73.946C420.733,210.945,418.878,209.88,415.87,209.22z M359.197,280.691
                                                            c-4.52-1.87-20.092-7.779-35.69-7.779c-6.163,0-11.624,0.938-16.271,2.81v-71.8c2.712-0.908,10.108-3.046,19.217-3.046
                                                            c11.977,0,22.269,3.623,30.673,10.685v42.861l2.072-2.283V280.691z M412.331,275.744c-4.989-2.008-10.727-3.023-17.079-3.023
                                                            c-15.586,0-30.42,5.979-34.891,7.94v-28.53l2.085,2.29V211.56c8.401-7.066,18.693-10.685,30.669-10.685
                                                            c9.077,0,16.502,2.142,19.216,3.046V275.744z"></path>
                                                        <path d="M314.22,213.361l0.73,2.764c18.392-4.875,34.938,4.153,35.106,4.245l1.39-2.497
                                                            C350.738,217.477,333.745,208.189,314.22,213.361z"></path>
                                                        <path d="M314.22,221.455l0.73,2.764c18.392-4.879,34.938,4.149,35.106,4.237l1.39-2.493
                                                            C350.738,225.562,333.745,216.278,314.22,221.455z"></path>
                                                        <path d="M314.22,229.059l0.73,2.764c18.392-4.875,34.938,4.153,35.106,4.241l1.39-2.497
                                                            C350.738,233.174,333.745,223.89,314.22,229.059z"></path>
                                                        <path d="M314.22,237.393l0.73,2.763c18.392-4.878,34.938,4.149,35.106,4.241l1.39-2.492
                                                            C350.738,241.503,333.745,232.212,314.22,237.393z"></path>
                                                        <path d="M314.22,245.114l0.73,2.765c18.392-4.879,34.938,4.145,35.106,4.244l1.39-2.504
                                                            C350.738,249.229,333.745,239.941,314.22,245.114z"></path>
                                                        <path d="M314.22,253.046l0.73,2.765c18.392-4.878,34.938,4.146,35.106,4.237l1.39-2.504
                                                            C350.738,257.153,333.745,247.871,314.22,253.046z"></path>
                                                        <path d="M314.22,260.994l0.73,2.764c18.392-4.878,34.938,4.153,35.106,4.238l1.39-2.49
                                                            C350.738,265.109,333.745,255.818,314.22,260.994z"></path>
                                                        <path d="M370.359,220.58c0.168-0.088,16.709-9.115,35.101-4.241l0.737-2.764c-19.529-5.172-36.521,4.115-37.228,4.512
                                                            L370.359,220.58z"></path>
                                                        <path d="M368.97,226.18l1.39,2.489c0.168-0.088,16.709-9.116,35.101-4.237l0.737-2.764
                                                            C386.668,216.492,369.676,225.775,368.97,226.18z"></path>
                                                        <path d="M368.97,233.777l1.39,2.496c0.168-0.092,16.709-9.116,35.101-4.245l0.737-2.764
                                                            C386.668,224.096,369.676,233.38,368.97,233.777z"></path>
                                                        <path d="M368.97,242.114l1.39,2.496c0.168-0.092,16.709-9.116,35.101-4.237l0.737-2.764
                                                            C386.668,232.426,369.676,241.713,368.97,242.114z"></path>
                                                        <path d="M368.97,249.833l1.39,2.504c0.168-0.092,16.709-9.12,35.101-4.245l0.737-2.764
                                                            C386.668,240.155,369.676,249.436,368.97,249.833z"></path>
                                                        <path d="M368.97,257.765l1.39,2.497c0.168-0.092,16.709-9.116,35.101-4.238l0.737-2.763
                                                            C386.668,248.084,369.676,257.368,368.97,257.765z"></path>
                                                        <path d="M368.97,265.713l1.39,2.496c0.168-0.084,16.709-9.123,35.101-4.237l0.737-2.764
                                                            C386.668,256.031,369.676,265.323,368.97,265.713z"></path>
                                                    </g>
                                                </g>
                                            </g>
                                        </svg>