<svg version="1.1" id="Layer_1" xmlns="http://www.w3.org/2000/svg" x="0px" y="0px" class="d-block mx-auto" viewBox="0 0 500 500" enable-background="new 0 0 500 500" xml:space="preserve">
                                            <g>
                                                <path class="must-read__img-hover-element--first" clip-rule="evenodd" d="M129.589,174.118c-7.979-15.071-14.293-27.005-21.674-40.95
                                                    c-8.059,14.147-15.133,26.576-23.858,41.894c0-31.546,0-59.7,0-88.62c15.098,0,29.945,0,45.532,0
                                                    C129.589,114.761,129.589,142.562,129.589,174.118z"></path>
                                                <path class="must-read__img-hover-element--second" clip-rule="evenodd" d="M238.846,377.582c0-77.77,62.73-140.864,140.347-141.507
                                                    c0-49.532,0-99.222,0-149.51c-79.38,0-158.316,0-238.793,0c0,43.304,0,85.744,0,128.184c-0.741,0.104-1.482,0.205-2.224,0.307
                                                    c-9.98-19.333-19.955-38.667-30.637-59.361c-11.314,20.167-21.833,38.912-32.351,57.657c-0.864-0.252-1.729-0.501-2.599-0.751
                                                    c0-41.854,0-83.708,0-126.983c-7.045,0-12.846,0.341-18.586-0.064C37.98,84.421,25.377,72.436,24.498,57.878
                                                    c-0.973-16.084,9.323-28.559,26.417-31.41c5.355-0.895,10.899-0.927,16.358-0.929c99.068-0.052,198.138-0.029,297.211-0.066
                                                    c4.753-0.002,9.506-0.4,14.635-0.63c-5.376-15.953-14.808-22.601-30.83-22.608C253.01,2.185,157.735,2.19,62.456,2.195
                                                    c-40.893,0-62.39,21.343-62.409,62.259c-0.064,124.313-0.05,248.628-0.03,372.944c0.005,37.904,22.563,60.373,60.626,60.389
                                                    c81.688,0.037,163.375,0.014,245.063,0.02C265.574,472.824,238.846,428.334,238.846,377.582z"></path>
                                                <g class="must-read__img-hover-element--third">
                                                    <path clip-rule="evenodd" d="M426.013,372.225h-91.495c-2.923,0-5.291,2.367-5.291,5.291v50.008
                                                        c0,2.926,2.368,5.291,5.291,5.291h91.495c2.92,0,5.291-2.365,5.291-5.291v-50.008
                                                        C431.304,374.592,428.933,372.225,426.013,372.225z M361.854,422.494c0,1.713-1.388,3.1-3.1,3.1h-10.815
                                                        c-1.712,0-3.101-1.387-3.101-3.1v-10.813c0-1.711,1.389-3.104,3.101-3.104h10.815c1.712,0,3.1,1.393,3.1,3.104V422.494z
                                                        M361.854,395.457c0,1.715-1.388,3.102-3.1,3.102h-10.815c-1.712,0-3.101-1.387-3.101-3.102v-10.814
                                                        c0-1.713,1.389-3.096,3.101-3.096h10.815c1.712,0,3.1,1.383,3.1,3.096V395.457z M388.892,422.494c0,1.713-1.392,3.1-3.099,3.1
                                                        h-10.822c-1.707,0-3.095-1.387-3.095-3.1v-10.813c0-1.711,1.388-3.104,3.095-3.104h10.822c1.707,0,3.099,1.393,3.099,3.104
                                                        V422.494z M388.892,395.457c0,1.715-1.392,3.102-3.099,3.102h-10.822c-1.707,0-3.095-1.387-3.095-3.102v-10.814
                                                        c0-1.713,1.388-3.096,3.095-3.096h10.822c1.707,0,3.099,1.383,3.099,3.096V395.457z M415.924,422.494c0,1.713-1.386,3.1-3.096,3.1
                                                        h-10.819c-1.71,0-3.103-1.387-3.103-3.1v-10.813c0-1.711,1.393-3.104,3.103-3.104h10.819c1.71,0,3.096,1.393,3.096,3.104V422.494z
                                                        M415.924,395.457c0,1.715-1.386,3.102-3.096,3.102h-10.819c-1.71,0-3.103-1.387-3.103-3.102v-10.814
                                                        c0-1.713,1.393-3.096,3.103-3.096h10.819c1.71,0,3.096,1.383,3.096,3.096V395.457z"></path>
                                                    <path clip-rule="evenodd" d="M380.384,257.963c-66.065,0-119.622,53.557-119.622,119.619
                                                        c0,66.064,53.557,119.621,119.622,119.621c66.061,0,119.616-53.557,119.616-119.621C500,311.52,446.444,257.963,380.384,257.963z
                                                        M408.466,313.936c0-2.561,2.077-4.639,4.637-4.639h8.441c2.557,0,4.632,2.078,4.632,4.639v27.08c0,2.564-2.075,4.637-4.632,4.637
                                                        h-8.441c-2.56,0-4.637-2.072-4.637-4.637V313.936z M334.35,313.936c0-2.561,2.077-4.639,4.639-4.639h8.439
                                                        c2.559,0,4.642,2.078,4.642,4.639v27.08c0,2.564-2.083,4.637-4.642,4.637h-8.439c-2.562,0-4.639-2.072-4.639-4.637V313.936z
                                                        M447.153,433.557c0,6.748-5.491,12.314-12.243,12.314H325.852c-6.761,0-12.24-5.553-12.24-12.314v-96.818
                                                        c0-6.635,5.363-12.039,11.887-12.232v16.516c0,7.465,6.055,13.484,13.522,13.484h8.535c7.463,0,13.602-6.02,13.602-13.484v-16.576
                                                        h38.45v16.576c0,7.465,6.136,13.484,13.604,13.484h8.533c7.47,0,13.524-6.02,13.524-13.484v-16.516
                                                        c6.524,0.193,11.885,5.598,11.885,12.232V433.557z"></path>
                                                </g>
                                            </g>
                                            
                                        </svg>