<svg version="1.1" id="Layer_1" xmlns="http://www.w3.org/2000/svg" x="0px" y="0px" class="d-block mx-auto" viewBox="0 0 500 500" enable-background="new 0 0 500 500" xml:space="preserve">
                                            <g>
                                                <path class="must-read__img-hover-element--first" clip-rule="evenodd" d="M129.587,174.118c-7.977-15.071-14.293-27.005-21.675-40.95
                                                    c-8.056,14.147-15.133,26.575-23.855,41.894c0-31.546,0-59.7,0-88.62c15.096,0,29.945,0,45.53,0
                                                    C129.587,114.762,129.587,142.563,129.587,174.118z"></path>
                                                <path class="must-read__img-hover-element--second" clip-rule="evenodd" d="M238.846,377.58c0-77.77,62.73-140.862,140.348-141.505
                                                    c0-49.532,0-99.222,0-149.51c-79.383,0-158.316,0-238.797,0c0,43.305,0,85.744,0,128.184c-0.741,0.104-1.481,0.205-2.223,0.307
                                                    c-9.978-19.333-19.955-38.667-30.635-59.361c-11.313,20.167-21.832,38.912-32.351,57.657c-0.865-0.252-1.732-0.501-2.599-0.751
                                                    c0-41.854,0-83.708,0-126.983c-7.045,0-12.846,0.341-18.589-0.064c-16.02-1.131-28.623-13.117-29.502-27.675
                                                    c-0.974-16.084,9.323-28.559,26.417-31.41c5.356-0.894,10.899-0.926,16.356-0.929c99.071-0.052,198.141-0.03,297.213-0.067
                                                    c4.754-0.002,9.504-0.4,14.635-0.63C373.744,8.89,364.311,2.242,348.287,2.235C253.01,2.186,157.733,2.19,62.457,2.195
                                                    c-40.893,0-62.39,21.343-62.41,62.259c-0.064,124.313-0.049,248.628-0.032,372.942c0.008,37.904,22.564,60.373,60.628,60.389
                                                    c81.688,0.037,163.376,0.016,245.064,0.02C265.574,472.822,238.846,428.332,238.846,377.58z"></path>
                                                <path class="must-read__img-hover-element--third" clip-rule="evenodd" d="M380.381,257.961c-66.063,0-119.619,53.557-119.619,119.619
                                                    c0,66.066,53.557,119.623,119.619,119.623C446.445,497.203,500,443.646,500,377.58C500,311.518,446.445,257.961,380.381,257.961z
                                                    M424.225,407.938c3.789,0,0,18.967-7.594,18.967c0,7.592-7.586,11.385-15.174,11.385c-32.059,0-20.783-8.021-53.125-11.385
                                                    v-60.707h-7.586v60.711h7.586v3.797H333.16c-4.178,0-7.594-5.125-7.594-11.385v-45.531c0-6.262,3.416-11.383,7.594-11.383h15.172
                                                    v3.791c28.57-8.568,56.916-30.051,56.916-49.324c6.287,0,22.766,7.586,0,45.533c0,0,18.977,0,22.766,0
                                                    c11.383,0,7.594,22.766,0,22.766C436.674,385.172,431.811,407.938,424.225,407.938z"></path>
                                            </g>
                                        </svg>